<mxfile host="app.diagrams.net" modified="2023-09-02T04:04:40.672Z" agent="Mozilla/5.0 (Macintosh; Intel Mac OS X 10_15_7) AppleWebKit/537.36 (KHTML, like Gecko) Chrome/116.0.0.0 Safari/537.36 Edg/116.0.1938.62" etag="cycRFohq8v81arZ7PUPB" version="21.6.9" type="device">
  <diagram name="第 1 页" id="OdhUqBrrztaWmbNxev-O">
    <mxGraphModel dx="954" dy="648" grid="1" gridSize="10" guides="1" tooltips="1" connect="1" arrows="1" fold="1" page="1" pageScale="1" pageWidth="827" pageHeight="1169" math="0" shadow="0">
      <root>
        <mxCell id="0" />
        <mxCell id="1" parent="0" />
        <mxCell id="yePrKKlZj-ors4RK1oXV-1" value="TiFlash-Proxy" style="swimlane;fontStyle=1;align=center;verticalAlign=top;childLayout=stackLayout;horizontal=1;startSize=26;horizontalStack=0;resizeParent=1;resizeParentMax=0;resizeLast=0;collapsible=1;marginBottom=0;" diagramCategory="uml" diagramName="Class" vertex="1" parent="1">
          <mxGeometry x="169" y="160" width="200" height="78" as="geometry" />
        </mxCell>
        <mxCell id="yePrKKlZj-ors4RK1oXV-2" value="+ EngineStroeServerHelper" style="text;strokeColor=none;fillColor=none;align=left;verticalAlign=top;spacingLeft=4;spacingRight=4;overflow=hidden;rotatable=0;points=[[0,0.5],[1,0.5]];portConstraint=eastwest;" vertex="1" parent="yePrKKlZj-ors4RK1oXV-1">
          <mxGeometry y="26" width="200" height="26" as="geometry" />
        </mxCell>
        <mxCell id="yePrKKlZj-ors4RK1oXV-3" value="+ RaftStroeProxy" style="text;strokeColor=none;fillColor=none;align=left;verticalAlign=top;spacingLeft=4;spacingRight=4;overflow=hidden;rotatable=0;points=[[0,0.5],[1,0.5]];portConstraint=eastwest;" vertex="1" parent="yePrKKlZj-ors4RK1oXV-1">
          <mxGeometry y="52" width="200" height="26" as="geometry" />
        </mxCell>
        <mxCell id="yePrKKlZj-ors4RK1oXV-4" value="TiFlash" style="swimlane;fontStyle=1;align=center;verticalAlign=top;childLayout=stackLayout;horizontal=1;startSize=26;horizontalStack=0;resizeParent=1;resizeParentMax=0;resizeLast=0;collapsible=1;marginBottom=0;" diagramCategory="uml" diagramName="Class" vertex="1" parent="1">
          <mxGeometry x="449" y="320" width="200" height="78" as="geometry" />
        </mxCell>
        <mxCell id="yePrKKlZj-ors4RK1oXV-5" value="+ RaftStroeProxyFFIHelper" style="text;strokeColor=none;fillColor=none;align=left;verticalAlign=top;spacingLeft=4;spacingRight=4;overflow=hidden;rotatable=0;points=[[0,0.5],[1,0.5]];portConstraint=eastwest;" vertex="1" parent="yePrKKlZj-ors4RK1oXV-4">
          <mxGeometry y="26" width="200" height="26" as="geometry" />
        </mxCell>
        <mxCell id="yePrKKlZj-ors4RK1oXV-6" value="+ EngineStroeServerWrap *" style="text;strokeColor=none;fillColor=none;align=left;verticalAlign=top;spacingLeft=4;spacingRight=4;overflow=hidden;rotatable=0;points=[[0,0.5],[1,0.5]];portConstraint=eastwest;" vertex="1" parent="yePrKKlZj-ors4RK1oXV-4">
          <mxGeometry y="52" width="200" height="26" as="geometry" />
        </mxCell>
        <mxCell id="yePrKKlZj-ors4RK1oXV-7" value="" style="curved=1;endArrow=classic;html=1;exitX=1;exitY=0.5;exitDx=0;exitDy=0;entryX=0;entryY=0.25;entryDx=0;entryDy=0;" diagramCategory="general" diagramName="curved" edge="1" parent="1" source="yePrKKlZj-ors4RK1oXV-2" target="yePrKKlZj-ors4RK1oXV-14">
          <mxGeometry width="50" height="50" relative="1" as="geometry">
            <mxPoint x="399" y="224" as="sourcePoint" />
            <mxPoint x="449" y="174" as="targetPoint" />
            <Array as="points">
              <mxPoint x="399" y="200" />
              <mxPoint x="389" y="170" />
            </Array>
          </mxGeometry>
        </mxCell>
        <mxCell id="yePrKKlZj-ors4RK1oXV-8" value="" style="curved=1;endArrow=classic;html=1;exitX=1;exitY=0.5;exitDx=0;exitDy=0;entryX=0.998;entryY=0.22;entryDx=0;entryDy=0;entryPerimeter=0;" diagramCategory="general" diagramName="curved" edge="1" parent="1" source="yePrKKlZj-ors4RK1oXV-15" target="yePrKKlZj-ors4RK1oXV-6">
          <mxGeometry width="50" height="50" relative="1" as="geometry">
            <mxPoint x="639" y="259" as="sourcePoint" />
            <mxPoint x="719" y="234" as="targetPoint" />
            <Array as="points">
              <mxPoint x="689" y="190" />
              <mxPoint x="699" y="230" />
              <mxPoint x="699" y="378" />
            </Array>
          </mxGeometry>
        </mxCell>
        <mxCell id="yePrKKlZj-ors4RK1oXV-9" value="" style="endArrow=classic;html=1;exitX=0;exitY=0.5;exitDx=0;exitDy=0;entryX=1;entryY=0.5;entryDx=0;entryDy=0;" diagramCategory="general" diagramName="DirectionalConnector" edge="1" parent="1" source="yePrKKlZj-ors4RK1oXV-5" target="yePrKKlZj-ors4RK1oXV-11">
          <mxGeometry width="50" height="50" relative="1" as="geometry">
            <mxPoint x="369" y="350" as="sourcePoint" />
            <mxPoint x="419" y="300" as="targetPoint" />
          </mxGeometry>
        </mxCell>
        <mxCell id="yePrKKlZj-ors4RK1oXV-10" value="RaftStroeProxyFFIHelper" style="swimlane;fontStyle=1;align=center;verticalAlign=top;childLayout=stackLayout;horizontal=1;startSize=26;horizontalStack=0;resizeParent=1;resizeParentMax=0;resizeLast=0;collapsible=1;marginBottom=0;" diagramCategory="uml" diagramName="Class" vertex="1" parent="1">
          <mxGeometry x="169" y="321" width="200" height="78" as="geometry" />
        </mxCell>
        <mxCell id="yePrKKlZj-ors4RK1oXV-11" value="+ proxy_ptr: RaftStoreProxy *" style="text;strokeColor=none;fillColor=none;align=left;verticalAlign=top;spacingLeft=4;spacingRight=4;overflow=hidden;rotatable=0;points=[[0,0.5],[1,0.5]];portConstraint=eastwest;" vertex="1" parent="yePrKKlZj-ors4RK1oXV-10">
          <mxGeometry y="26" width="200" height="26" as="geometry" />
        </mxCell>
        <mxCell id="yePrKKlZj-ors4RK1oXV-12" value="+ FFI calls from TiFlash to Proxy" style="text;strokeColor=none;fillColor=none;align=left;verticalAlign=top;spacingLeft=4;spacingRight=4;overflow=hidden;rotatable=0;points=[[0,0.5],[1,0.5]];portConstraint=eastwest;" vertex="1" parent="yePrKKlZj-ors4RK1oXV-10">
          <mxGeometry y="52" width="200" height="26" as="geometry" />
        </mxCell>
        <mxCell id="yePrKKlZj-ors4RK1oXV-13" value="" style="curved=1;endArrow=classic;html=1;exitX=0;exitY=0.5;exitDx=0;exitDy=0;" diagramCategory="general" diagramName="curved" edge="1" parent="1" source="yePrKKlZj-ors4RK1oXV-11">
          <mxGeometry width="50" height="50" relative="1" as="geometry">
            <mxPoint x="119" y="280" as="sourcePoint" />
            <mxPoint x="169" y="230" as="targetPoint" />
            <Array as="points">
              <mxPoint x="139" y="360" />
              <mxPoint x="129" y="320" />
              <mxPoint x="129" y="290" />
              <mxPoint x="129" y="230" />
              <mxPoint x="139" y="230" />
            </Array>
          </mxGeometry>
        </mxCell>
        <mxCell id="yePrKKlZj-ors4RK1oXV-14" value="EngineStroeServerHelper" style="swimlane;fontStyle=1;align=center;verticalAlign=top;childLayout=stackLayout;horizontal=1;startSize=26;horizontalStack=0;resizeParent=1;resizeParentMax=0;resizeLast=0;collapsible=1;marginBottom=0;" diagramCategory="uml" diagramName="Class" vertex="1" parent="1">
          <mxGeometry x="449" y="160" width="200" height="78" as="geometry" />
        </mxCell>
        <mxCell id="yePrKKlZj-ors4RK1oXV-15" value="+ inner: EngineStroeServerWrap *" style="text;strokeColor=none;fillColor=none;align=left;verticalAlign=top;spacingLeft=4;spacingRight=4;overflow=hidden;rotatable=0;points=[[0,0.5],[1,0.5]];portConstraint=eastwest;" vertex="1" parent="yePrKKlZj-ors4RK1oXV-14">
          <mxGeometry y="26" width="200" height="26" as="geometry" />
        </mxCell>
        <mxCell id="yePrKKlZj-ors4RK1oXV-16" value="+ FFI call from Proxy to TiFlash" style="text;strokeColor=none;fillColor=none;align=left;verticalAlign=top;spacingLeft=4;spacingRight=4;overflow=hidden;rotatable=0;points=[[0,0.5],[1,0.5]];portConstraint=eastwest;" vertex="1" parent="yePrKKlZj-ors4RK1oXV-14">
          <mxGeometry y="52" width="200" height="26" as="geometry" />
        </mxCell>
        <mxCell id="yePrKKlZj-ors4RK1oXV-18" value="" style="rounded=1;whiteSpace=wrap;html=1;fillColor=none;dashed=1;" vertex="1" parent="1">
          <mxGeometry x="80" y="110" width="670" height="340" as="geometry" />
        </mxCell>
      </root>
    </mxGraphModel>
  </diagram>
</mxfile>
